<svg data-v-423bf9ae="" xmlns="http://www.w3.org/2000/svg" viewBox="0 0 143.0443651830781 163" class="iconAbove"><!----><!----><!----><g data-v-423bf9ae="" id="e8950e9e-fe91-4080-92b3-03e249b35fc4" fill="black" transform="matrix(6.048387631727478,0,0,6.048387631727478,-5.564515955002406,58.362901923528284)"><path d="M3.30 17.30L3.30 17.30Q2.28 17.30 1.79 17.02L1.79 17.02L1.79 17.02Q1.30 16.73 1.11 15.97L1.11 15.97L1.11 15.97Q0.92 15.22 0.92 13.68L0.92 13.68L0.92 13.68Q0.92 12.12 1.11 11.38L1.11 11.38L1.11 11.38Q1.30 10.63 1.79 10.34L1.79 10.34L1.79 10.34Q2.28 10.05 3.30 10.05L3.30 10.05L3.30 10.05Q4.56 10.05 5.56 10.29L5.56 10.29L5.40 11.19L5.40 11.19Q4.31 10.98 3.35 10.98L3.35 10.98L3.35 10.98Q2.63 10.98 2.35 11.24L2.35 11.24L2.35 11.24Q2.07 11.51 2.07 12.18L2.07 12.18L2.07 16.21L2.07 16.21Q2.62 16.38 3.64 16.38L3.64 16.38L3.64 16.38Q4.09 16.38 4.51 16.31L4.51 16.31L4.51 16.31Q4.94 16.24 5.57 16.06L5.57 16.06L5.71 16.90L5.71 16.90Q5.26 17.09 4.62 17.20L4.62 17.20L4.62 17.20Q3.98 17.30 3.30 17.30L3.30 17.30ZM10.18 17.30L10.18 17.30Q8.93 17.30 8.33 17.02L8.33 17.02L8.33 17.02Q7.73 16.73 7.50 15.98L7.50 15.98L7.50 15.98Q7.28 15.23 7.28 13.68L7.28 13.68L7.28 13.68Q7.28 12.12 7.50 11.38L7.50 11.38L7.50 11.38Q7.73 10.63 8.33 10.34L8.33 10.34L8.33 10.34Q8.93 10.05 10.18 10.05L10.18 10.05L10.18 10.05Q11.44 10.05 12.04 10.33L12.04 10.33L12.04 10.33Q12.64 10.61 12.87 11.36L12.87 11.36L12.87 11.36Q13.09 12.11 13.09 13.68L13.09 13.68L13.09 13.68Q13.09 15.23 12.87 15.98L12.87 15.98L12.87 15.98Q12.64 16.73 12.03 17.02L12.03 17.02L12.03 17.02Q11.42 17.30 10.18 17.30L10.18 17.30ZM8.43 16.35L11.24 16.35L11.24 16.35Q11.66 16.35 11.80 16.28L11.80 16.28L11.80 16.28Q11.94 16.21 11.94 16.00L11.94 16.00L11.94 11.00L9.13 11.00L9.13 11.00Q8.71 11.00 8.57 11.07L8.57 11.07L8.57 11.07Q8.43 11.14 8.43 11.35L8.43 11.35L8.43 16.35ZM18.56 9.97L18.56 9.97Q19.60 9.97 20.10 10.26L20.10 10.26L20.10 10.26Q20.61 10.56 20.80 11.33L20.80 11.33L20.80 11.33Q20.99 12.10 20.99 13.68L20.99 13.68L20.99 13.68Q20.99 15.25 20.78 16.00L20.78 16.00L20.78 16.00Q20.58 16.74 20.03 17.02L20.03 17.02L20.03 17.02Q19.49 17.30 18.34 17.30L18.34 17.30L18.34 17.30Q17.88 17.30 17.68 17.29L17.68 17.29L17.68 17.29Q16.65 17.23 15.39 16.90L15.39 16.90L15.39 7.83L16.51 7.67L16.51 10.33L16.51 10.33Q16.80 10.12 17.29 10.05L17.29 10.05L17.29 10.05Q17.78 9.97 18.56 9.97L18.56 9.97ZM19.82 16.09L19.82 10.92L17.16 10.92L17.16 10.92Q16.77 10.92 16.64 10.99L16.64 10.99L16.64 10.99Q16.51 11.06 16.51 11.27L16.51 11.27L16.51 16.35L19.15 16.35L19.15 16.35Q19.53 16.35 19.68 16.30L19.68 16.30L19.68 16.30Q19.82 16.24 19.82 16.09L19.82 16.09ZM23.11 17.18L23.11 17.18ZM23.28 10.22L24.40 10.04L24.40 17.18L23.28 17.18L23.28 10.22ZM23.86 8.83L23.86 8.83Q23.42 8.83 23.27 8.69L23.27 8.69L23.27 8.69Q23.11 8.54 23.11 8.12L23.11 8.12L23.11 8.12Q23.11 7.69 23.27 7.53L23.27 7.53L23.27 7.53Q23.42 7.38 23.86 7.38L23.86 7.38L23.86 7.38Q24.28 7.38 24.42 7.53L24.42 7.53L24.42 7.53Q24.57 7.69 24.57 8.12L24.57 8.12L24.57 8.12Q24.57 8.54 24.43 8.69L24.43 8.69L24.43 8.69Q24.29 8.83 23.86 8.83L23.86 8.83Z"></path></g><!----><g data-v-423bf9ae="" id="4dc87763-f3aa-4abe-867b-7b499a20c741" transform="matrix(1.25,0,0,1.25,12.099997997283936,-13.999999523162842)" stroke="none" fill="black"><path d="M48 47.3c9.7 0 17.7-7.9 17.7-17.7 0-9.7-8-17.6-17.7-17.6s-17.7 7.9-17.7 17.7c0 9.7 8 17.6 17.7 17.6zM64 48.4c-4.4 3.9-10 6.1-16 6.1s-11.6-2.1-16-6.1c-8.4 1.1-14.9 8.3-14.9 16.9V84h61.8V65.3c0-8.6-6.5-15.9-14.9-16.9zM39.7 72.7l-2.8 2.9-6.6-6.6 6.6-6.6 2.8 2.9L36 69l3.7 3.7zm7.8 6.7l-3.8-1.1 5.7-19.9 3.8 1.1-5.7 19.9zm11.6-3.8l-2.8-2.9L60 69l-3.7-3.7 2.8-2.9 6.6 6.6-6.6 6.6z"></path></g><!----></svg>